<svg width="101" height="147" viewBox="0 0 101 147" fill="none" xmlns="http://www.w3.org/2000/svg">
<path fill-rule="evenodd" clip-rule="evenodd" d="M24.6257 70.4466L3.99828 73.5L23.7119 76.4182C3.28953 111.436 -5.64342 141.475 3.71219 146.329C11.5619 150.402 30.059 135.59 49.711 110.986L50.5 115.291L51.7663 108.382C52.2477 107.765 52.7297 107.142 53.212 106.514C61.4329 112.125 69.3425 114.196 74.8188 111.354C83.1262 107.044 83.3395 92.7231 76.3743 76.5535L97.0017 73.5L77.2881 70.5818C97.7105 35.5638 106.643 5.52495 97.2878 0.670669C89.4381 -3.40224 70.941 11.4099 51.289 36.0141L50.5 31.7091L49.2338 38.6178C48.7523 39.2348 48.2703 39.8576 47.788 40.4858C39.5671 34.8753 31.6575 32.8043 26.1812 35.6457C17.8738 39.9561 17.6605 54.277 24.6257 70.4466ZM29.5956 130.918C35.769 125.004 42.4798 117.524 49.3214 108.861L48.1875 102.674C42.3222 97.7101 36.517 91.1023 31.5315 83.342C30.1781 81.2352 28.9367 79.1239 27.8092 77.0247L25.4697 76.6784C16.3901 92.1918 9.58028 106.715 5.62187 118.479C3.12446 125.9 1.7905 132.141 1.69632 136.803C1.64922 139.134 1.91466 140.991 2.44034 142.375C2.9613 143.748 3.70028 144.568 4.55768 145.013C5.41508 145.458 6.57539 145.623 8.15825 145.342C9.7554 145.059 11.6773 144.337 13.9005 143.135C18.3457 140.731 23.6925 136.572 29.5956 130.918ZM29.8574 77.3279C30.8231 79.0741 31.8696 80.8288 32.996 82.5822C37.4504 89.5159 42.5511 95.4874 47.725 100.15L43.9237 79.4102L29.8574 77.3279ZM52.838 104.318C52.742 104.248 52.646 104.177 52.5499 104.106L57.0763 79.4102L71.3324 77.2998C70.2497 79.0525 69.14 80.8141 68.004 82.5822C63.0244 90.3334 57.9145 97.6302 52.838 104.318ZM54.17 105.26C54.538 105.512 54.9052 105.756 55.2713 105.993C63.0101 111.001 69.6699 112.271 73.9733 110.038C78.2766 107.805 80.3828 101.987 79.4262 93.4601C78.8666 88.471 77.27 82.7759 74.6691 76.8059L73.4584 76.9851C72.1669 79.0923 70.8364 81.2127 69.4685 83.342C64.4497 91.1542 59.2951 98.5129 54.17 105.26ZM73.1908 69.9753L75.5302 70.3216C84.6099 54.8083 91.4197 40.2846 95.3781 28.5214C97.8755 21.0997 99.2095 14.8592 99.3037 10.1973C99.3508 7.86588 99.0853 6.00918 98.5597 4.62453C98.0387 3.25227 97.2997 2.43162 96.4423 1.98674C95.5849 1.54187 94.4246 1.37706 92.8418 1.65772C91.2446 1.94092 89.3227 2.66268 87.0995 3.86506C82.6543 6.26927 77.3075 10.4278 71.4044 16.0823C65.231 21.9958 58.5201 29.4763 51.6786 38.1395L52.8125 44.3263C58.6778 49.2899 64.483 55.8977 69.4685 63.658C70.8219 65.7648 72.0634 67.8761 73.1908 69.9753ZM53.275 46.8495C58.4489 51.5126 63.5496 57.4841 68.004 64.4178C69.1305 66.1712 70.1769 67.926 71.1427 69.6721L57.0763 67.5899L53.275 46.8495ZM48.162 42.6821C48.258 42.7521 48.354 42.8226 48.4501 42.8936L43.9237 67.5899L29.6675 69.7002C30.7503 67.9476 31.86 66.186 32.996 64.4178C37.9756 56.6666 43.0855 49.3698 48.162 42.6821ZM46.83 41.7403C41.7049 48.4871 36.5503 55.8458 31.5315 63.658C30.1635 65.7874 28.8331 67.9077 27.5415 70.0149L26.331 70.1941C23.7301 64.2241 22.1334 58.529 21.5738 53.5399C20.6172 45.0129 22.7234 39.1946 27.0267 36.9618C31.3301 34.7289 37.9899 35.9989 45.7287 41.0068C46.0948 41.2438 46.462 41.4883 46.83 41.7403Z" fill="white"/>
</svg>
