<svg width="35" height="35" viewBox="0 0 35 35" fill="none" xmlns="http://www.w3.org/2000/svg">
<path d="M17.4999 25.1563C17.3562 25.1569 17.2139 25.1289 17.0811 25.0738C16.9484 25.0187 16.828 24.9377 16.727 24.8354L11.6666 19.7313C11.5333 19.5257 11.4729 19.2813 11.4951 19.0373C11.5172 18.7934 11.6206 18.5639 11.7888 18.3857C11.9569 18.2075 12.18 18.0909 12.4222 18.0546C12.6645 18.0183 12.912 18.0643 13.1249 18.1854L17.4999 22.5604L21.8749 18.1854C22.0879 18.0643 22.3354 18.0183 22.5777 18.0546C22.8199 18.0909 23.043 18.2075 23.2111 18.3857C23.3792 18.5639 23.4827 18.7934 23.5048 19.0373C23.527 19.2813 23.4666 19.5257 23.3333 19.7313L18.2729 24.7917C18.1756 24.9019 18.0569 24.991 17.924 25.0537C17.7911 25.1164 17.6468 25.1513 17.4999 25.1563Z" fill="white"/>
<path d="M17.4999 17.1354C17.3562 17.1361 17.2138 17.1081 17.0811 17.053C16.9484 16.9979 16.828 16.9168 16.727 16.8146L11.6666 11.6667C11.5691 11.4626 11.5373 11.2333 11.5756 11.0104C11.6138 10.7874 11.7202 10.5819 11.8802 10.4219C12.0401 10.262 12.2457 10.1556 12.4686 10.1173C12.6915 10.0791 12.9208 10.1109 13.1249 10.2083L17.4999 14.5833L21.8749 10.2083C22.079 10.1109 22.3083 10.0791 22.5313 10.1173C22.7542 10.1556 22.9598 10.262 23.1197 10.4219C23.2796 10.5819 23.3861 10.7874 23.4243 11.0104C23.4625 11.2333 23.4307 11.4626 23.3333 11.6667L18.2291 16.7708C18.0431 16.983 17.7813 17.1139 17.4999 17.1354Z" fill="white"/>
</svg>
