<svg width="35" height="35" viewBox="0 0 35 35" fill="none" xmlns="http://www.w3.org/2000/svg">
<path d="M15.1521 16.7708C15.1521 16.1729 15.648 15.6771 16.2459 15.6771H18.0688V13.8542C18.0688 13.2563 18.5646 12.7604 19.1625 12.7604C19.7605 12.7604 20.2563 13.2563 20.2563 13.8542V15.6771H22.0792C22.6771 15.6771 23.173 16.1729 23.173 16.7708C23.173 17.3688 22.6771 17.8646 22.0792 17.8646H20.2563V19.6875C20.2563 20.2854 19.7605 20.7813 19.1625 20.7813C18.5646 20.7813 18.0688 20.2854 18.0688 19.6875V17.8646H16.2459C15.648 17.8646 15.1521 17.3688 15.1521 16.7708ZM16.4063 27.3438C16.4063 28.5542 15.4292 29.5313 14.2188 29.5313C13.0084 29.5313 12.0313 28.5542 12.0313 27.3438C12.0313 26.1333 13.0084 25.1563 14.2188 25.1563C15.4292 25.1563 16.4063 26.1333 16.4063 27.3438ZM25.8855 27.3438C25.8855 28.5542 24.9084 29.5313 23.698 29.5313C22.4875 29.5313 21.5105 28.5542 21.5105 27.3438C21.5105 26.1333 22.4875 25.1563 23.698 25.1563C24.9084 25.1563 25.8855 26.1333 25.8855 27.3438ZM30.2313 11.2L27.3146 22.8667C27.198 23.3479 26.7605 23.6979 26.25 23.6979H11.6667C11.1417 23.6979 10.6896 23.3188 10.5875 22.7938L7.83129 7.65625H5.83337C5.23546 7.65625 4.73962 7.16042 4.73962 6.5625C4.73962 5.96458 5.23546 5.46875 5.83337 5.46875H8.75004C9.27504 5.46875 9.72712 5.84792 9.82921 6.37292L10.4563 9.84375H29.1667C29.5021 9.84375 29.823 10.0042 30.0271 10.2667C30.2313 10.5292 30.3042 10.8792 30.2313 11.2ZM27.7667 12.0313H10.85L12.5709 21.5104H25.3896L27.7521 12.0313H27.7667Z" fill="white"/>
</svg>
